#format: frame checksums
#version: 2
#hash: MD5
#tb 0: 1/30
#media_type 0: video
#codec_id 0: rawvideo
#dimensions 0: 176x144
#sar 0: 0/1
#stream#, dts,        pts, duration,     size, hash
0,          0,          0,        1,    38016, cc3069a59b6f4319761af2b39923a6e5
0,          1,          1,        1,    38016, c0bc935941d994c6af6a864f02a90a62
0,          2,          2,        1,    38016, 5b6073ce4a03967aa87e56dfa27e32c2
0,          3,          3,        1,    38016, 5310a9d6bf938ed89b10727f11e131c4
0,          4,          4,        1,    38016, 290fb1310ea10b862b51d37ff9d79f7c
0,          5,          5,        1,    38016, 0ca1accba77dc867df682b8e3768d6e2
0,          6,          6,        1,    38016, 2a90659dd4cd5d2f825641be55609d97
0,          7,          7,        1,    38016, e003db31fbfeab54385252e8c64197fc
0,          8,          8,        1,    38016, 0778609bd9626652e8a8dd07d5ef9f45
0,          9,          9,        1,    38016, 36eecf49c4aa2d8c3f232a1dbbb5f4ca
0,         10,         10,        1,    38016, f69f30dd8ebb7db4c51e0371f6a23736
0,         11,         11,        1,    38016, e9d5293db5122b9683a0853c2ef678cb
0,         12,         12,        1,    38016, 75d6a09bca67a82c8aacabb710558330
0,         13,         13,        1,    38016, 973d73aa4bb4e3de2cb1ba97685e08ca
0,         14,         14,        1,    38016, daf9ce67baaaa02bc56f49b540f22a30
0,         15,         15,        1,    38016, d08fd3b942e1219132015819c553f2c2
0,         16,         16,        1,    38016, 0aeea73b030e47bbd80bb0fb33fb6ebd
0,         17,         17,        1,    38016, 6e9f5f98fffe27abfae52304c693ae44
0,         18,         18,        1,    38016, 961c71a47741a1ac47fcaebf958647c8
0,         19,         19,        1,    38016, e75e53160b9f33eca0dfba999d8002eb
0,         20,         20,        1,    38016, ebb5d79336f75c44a09971dbba6947f3
0,         21,         21,        1,    38016, f02317fae5e143103a114ca692b58c25
0,         22,         22,        1,    38016, 8282867aa63fa23c48cc0216e21933cc
0,         23,         23,        1,    38016, d0d74ebbf56ca62825641028b66cdb20
0,         24,         24,        1,    38016, a8df24b0a22fe4fb334ea7063cba8754
0,         25,         25,        1,    38016, 8a570e42ad6ab42ead80b5022c2eb2f1
0,         26,         26,        1,    38016, dae566f13fa69de11db3ba7673e6211d
0,         27,         27,        1,    38016, 914ed8403cdbf4c54d0b9cb1eeee6832
0,         28,         28,        1,    38016, 18aa8d4bfe06a04ec4e9ccf9c7a92643
